<svg width="185" height="44" viewBox="0 0 185 44" fill="none" xmlns="http://www.w3.org/2000/svg">
<circle cx="5" cy="8" r="4.5" fill="#7F2B19" stroke="#7F2B19"/>
<circle cx="5" cy="36" r="5" fill="#FFAB99"/>
<circle cx="122" cy="8" r="5" fill="#FF8970"/>
<circle cx="122" cy="36" r="5" fill="#FF5733"/>
<path d="M26.67 8.662C26.67 9.298 26.564 9.882 26.352 10.414C26.14 10.946 25.842 11.404 25.458 11.788C25.074 12.172 24.612 12.47 24.072 12.682C23.532 12.894 22.932 13 22.272 13H18.966V4.324H22.272C22.932 4.324 23.532 4.432 24.072 4.648C24.612 4.86 25.074 5.158 25.458 5.542C25.842 5.922 26.14 6.378 26.352 6.91C26.564 7.442 26.67 8.026 26.67 8.662ZM25.014 8.662C25.014 8.186 24.95 7.76 24.822 7.384C24.698 7.004 24.516 6.684 24.276 6.424C24.04 6.16 23.752 5.958 23.412 5.818C23.076 5.678 22.696 5.608 22.272 5.608H20.586V11.716H22.272C22.696 11.716 23.076 11.646 23.412 11.506C23.752 11.366 24.04 11.166 24.276 10.906C24.516 10.642 24.698 10.322 24.822 9.946C24.95 9.566 25.014 9.138 25.014 8.662ZM29.8949 13H28.2749V4.324H29.8949V13ZM36.6014 9.724L35.5454 6.838C35.4934 6.71 35.4394 6.558 35.3834 6.382C35.3274 6.206 35.2714 6.016 35.2154 5.812C35.1634 6.016 35.1094 6.208 35.0534 6.388C34.9974 6.564 34.9434 6.718 34.8914 6.85L33.8414 9.724H36.6014ZM39.4514 13H38.2034C38.0634 13 37.9494 12.966 37.8614 12.898C37.7734 12.826 37.7074 12.738 37.6634 12.634L37.0154 10.864H33.4214L32.7734 12.634C32.7414 12.726 32.6794 12.81 32.5874 12.886C32.4954 12.962 32.3814 13 32.2454 13H30.9854L34.3994 4.324H36.0434L39.4514 13ZM37.7354 1.834L35.7914 3.55C35.7114 3.622 35.6354 3.666 35.5634 3.682C35.4914 3.698 35.3994 3.706 35.2874 3.706H34.2134L35.4674 2.08C35.5074 2.024 35.5474 1.98 35.5874 1.948C35.6274 1.912 35.6714 1.886 35.7194 1.87C35.7674 1.854 35.8194 1.844 35.8754 1.84C35.9354 1.836 36.0054 1.834 36.0854 1.834H37.7354ZM43.1514 8.452C43.4554 8.452 43.7194 8.414 43.9434 8.338C44.1714 8.262 44.3574 8.158 44.5014 8.026C44.6494 7.89 44.7594 7.73 44.8314 7.546C44.9034 7.362 44.9394 7.16 44.9394 6.94C44.9394 6.5 44.7934 6.162 44.5014 5.926C44.2134 5.69 43.7714 5.572 43.1754 5.572H42.1434V8.452H43.1514ZM47.3034 13H45.8454C45.5694 13 45.3694 12.892 45.2454 12.676L43.4214 9.898C43.3534 9.794 43.2774 9.72 43.1934 9.676C43.1134 9.632 42.9934 9.61 42.8334 9.61H42.1434V13H40.5294V4.324H43.1754C43.7634 4.324 44.2674 4.386 44.6874 4.51C45.1114 4.63 45.4574 4.8 45.7254 5.02C45.9974 5.24 46.1974 5.504 46.3254 5.812C46.4534 6.116 46.5174 6.452 46.5174 6.82C46.5174 7.112 46.4734 7.388 46.3854 7.648C46.3014 7.908 46.1774 8.144 46.0134 8.356C45.8534 8.568 45.6534 8.754 45.4134 8.914C45.1774 9.074 44.9074 9.2 44.6034 9.292C44.7074 9.352 44.8034 9.424 44.8914 9.508C44.9794 9.588 45.0594 9.684 45.1314 9.796L47.3034 13ZM50.0404 13H48.4204V4.324H50.0404V13ZM60.4369 8.662C60.4369 9.298 60.3309 9.888 60.1189 10.432C59.9109 10.972 59.6149 11.44 59.2309 11.836C58.8469 12.232 58.3849 12.542 57.8449 12.766C57.3049 12.986 56.7049 13.096 56.0449 13.096C55.3889 13.096 54.7909 12.986 54.2509 12.766C53.7109 12.542 53.2469 12.232 52.8589 11.836C52.4749 11.44 52.1769 10.972 51.9649 10.432C51.7529 9.888 51.6469 9.298 51.6469 8.662C51.6469 8.026 51.7529 7.438 51.9649 6.898C52.1769 6.354 52.4749 5.884 52.8589 5.488C53.2469 5.092 53.7109 4.784 54.2509 4.564C54.7909 4.34 55.3889 4.228 56.0449 4.228C56.4849 4.228 56.8989 4.28 57.2869 4.384C57.6749 4.484 58.0309 4.628 58.3549 4.816C58.6789 5 58.9689 5.226 59.2249 5.494C59.4849 5.758 59.7049 6.054 59.8849 6.382C60.0649 6.71 60.2009 7.066 60.2929 7.45C60.3889 7.834 60.4369 8.238 60.4369 8.662ZM58.7869 8.662C58.7869 8.186 58.7229 7.76 58.5949 7.384C58.4669 7.004 58.2849 6.682 58.0489 6.418C57.8129 6.154 57.5249 5.952 57.1849 5.812C56.8489 5.672 56.4689 5.602 56.0449 5.602C55.6209 5.602 55.2389 5.672 54.8989 5.812C54.5629 5.952 54.2749 6.154 54.0349 6.418C53.7989 6.682 53.6169 7.004 53.4889 7.384C53.3609 7.76 53.2969 8.186 53.2969 8.662C53.2969 9.138 53.3609 9.566 53.4889 9.946C53.6169 10.322 53.7989 10.642 54.0349 10.906C54.2749 11.166 54.5629 11.366 54.8989 11.506C55.2389 11.646 55.6209 11.716 56.0449 11.716C56.4689 11.716 56.8489 11.646 57.1849 11.506C57.5249 11.366 57.8129 11.166 58.0489 10.906C58.2849 10.642 58.4669 10.322 58.5949 9.946C58.7229 9.566 58.7869 9.138 58.7869 8.662Z" fill="#F0EEEE"/>
<path d="M23.586 33.902C23.538 33.986 23.486 34.048 23.43 34.088C23.378 34.124 23.312 34.142 23.232 34.142C23.148 34.142 23.056 34.112 22.956 34.052C22.86 33.988 22.744 33.918 22.608 33.842C22.472 33.766 22.312 33.698 22.128 33.638C21.948 33.574 21.734 33.542 21.486 33.542C21.262 33.542 21.066 33.57 20.898 33.626C20.73 33.678 20.588 33.752 20.472 33.848C20.36 33.944 20.276 34.06 20.22 34.196C20.164 34.328 20.136 34.474 20.136 34.634C20.136 34.838 20.192 35.008 20.304 35.144C20.42 35.28 20.572 35.396 20.76 35.492C20.948 35.588 21.162 35.674 21.402 35.75C21.642 35.826 21.888 35.908 22.14 35.996C22.392 36.08 22.638 36.18 22.878 36.296C23.118 36.408 23.332 36.552 23.52 36.728C23.708 36.9 23.858 37.112 23.97 37.364C24.086 37.616 24.144 37.922 24.144 38.282C24.144 38.674 24.076 39.042 23.94 39.386C23.808 39.726 23.612 40.024 23.352 40.28C23.096 40.532 22.782 40.732 22.41 40.88C22.038 41.024 21.612 41.096 21.132 41.096C20.856 41.096 20.584 41.068 20.316 41.012C20.048 40.96 19.79 40.884 19.542 40.784C19.298 40.684 19.068 40.564 18.852 40.424C18.636 40.284 18.444 40.128 18.276 39.956L18.75 39.182C18.79 39.126 18.842 39.08 18.906 39.044C18.97 39.004 19.038 38.984 19.11 38.984C19.21 38.984 19.318 39.026 19.434 39.11C19.55 39.19 19.688 39.28 19.848 39.38C20.008 39.48 20.194 39.572 20.406 39.656C20.622 39.736 20.88 39.776 21.18 39.776C21.64 39.776 21.996 39.668 22.248 39.452C22.5 39.232 22.626 38.918 22.626 38.51C22.626 38.282 22.568 38.096 22.452 37.952C22.34 37.808 22.19 37.688 22.002 37.592C21.814 37.492 21.6 37.408 21.36 37.34C21.12 37.272 20.876 37.198 20.628 37.118C20.38 37.038 20.136 36.942 19.896 36.83C19.656 36.718 19.442 36.572 19.254 36.392C19.066 36.212 18.914 35.988 18.798 35.72C18.686 35.448 18.63 35.114 18.63 34.718C18.63 34.402 18.692 34.094 18.816 33.794C18.944 33.494 19.128 33.228 19.368 32.996C19.608 32.764 19.904 32.578 20.256 32.438C20.608 32.298 21.012 32.228 21.468 32.228C21.98 32.228 22.452 32.308 22.884 32.468C23.316 32.628 23.684 32.852 23.988 33.14L23.586 33.902ZM27.3519 33.608V36.014H30.3879V37.256H27.3519V39.71H31.2039V41H25.7319V32.324H31.2039V33.608H27.3519ZM42.2223 32.324V41H40.8003V35.396C40.8003 35.172 40.8123 34.93 40.8363 34.67L38.2143 39.596C38.0903 39.832 37.9003 39.95 37.6443 39.95H37.4163C37.1603 39.95 36.9703 39.832 36.8463 39.596L34.1943 34.652C34.2063 34.784 34.2163 34.914 34.2243 35.042C34.2323 35.17 34.2363 35.288 34.2363 35.396V41H32.8143V32.324H34.0323C34.1043 32.324 34.1663 32.326 34.2183 32.33C34.2703 32.334 34.3163 32.344 34.3563 32.36C34.4003 32.376 34.4383 32.402 34.4703 32.438C34.5063 32.474 34.5403 32.522 34.5723 32.582L37.1703 37.4C37.2383 37.528 37.3003 37.66 37.3563 37.796C37.4163 37.932 37.4743 38.072 37.5303 38.216C37.5863 38.068 37.6443 37.926 37.7043 37.79C37.7643 37.65 37.8283 37.516 37.8963 37.388L40.4583 32.582C40.4903 32.522 40.5243 32.474 40.5603 32.438C40.5963 32.402 40.6343 32.376 40.6743 32.36C40.7183 32.344 40.7663 32.334 40.8183 32.33C40.8703 32.326 40.9323 32.324 41.0043 32.324H42.2223ZM48.922 37.724L47.866 34.838C47.814 34.71 47.76 34.558 47.704 34.382C47.648 34.206 47.592 34.016 47.536 33.812C47.484 34.016 47.43 34.208 47.374 34.388C47.318 34.564 47.264 34.718 47.212 34.85L46.162 37.724H48.922ZM51.772 41H50.524C50.384 41 50.27 40.966 50.182 40.898C50.094 40.826 50.028 40.738 49.984 40.634L49.336 38.864H45.742L45.094 40.634C45.062 40.726 45 40.81 44.908 40.886C44.816 40.962 44.702 41 44.566 41H43.306L46.72 32.324H48.364L51.772 41ZM60.1641 32.324V41H59.3361C59.2081 41 59.1001 40.98 59.0121 40.94C58.9281 40.896 58.8461 40.824 58.7661 40.724L54.2361 34.94C54.2601 35.204 54.2721 35.448 54.2721 35.672V41H52.8501V32.324H53.6961C53.7641 32.324 53.8221 32.328 53.8701 32.336C53.9221 32.34 53.9661 32.352 54.0021 32.372C54.0421 32.388 54.0801 32.414 54.1161 32.45C54.1521 32.482 54.1921 32.526 54.2361 32.582L58.7841 38.39C58.7721 38.25 58.7621 38.112 58.7541 37.976C58.7461 37.84 58.7421 37.714 58.7421 37.598V32.324H60.1641ZM66.8602 37.724L65.8042 34.838C65.7522 34.71 65.6982 34.558 65.6422 34.382C65.5862 34.206 65.5302 34.016 65.4742 33.812C65.4222 34.016 65.3682 34.208 65.3122 34.388C65.2562 34.564 65.2022 34.718 65.1502 34.85L64.1002 37.724H66.8602ZM69.7102 41H68.4622C68.3222 41 68.2082 40.966 68.1202 40.898C68.0322 40.826 67.9662 40.738 67.9222 40.634L67.2742 38.864H63.6802L63.0322 40.634C63.0002 40.726 62.9382 40.81 62.8462 40.886C62.7542 40.962 62.6402 41 62.5042 41H61.2442L64.6582 32.324H66.3022L69.7102 41ZM75.8702 39.668V41H70.7882V32.324H72.4022V39.668H75.8702Z" fill="#F0EEEE"/>
<path d="M145.374 4.324V13H143.952V7.396C143.952 7.172 143.964 6.93 143.988 6.67L141.366 11.596C141.242 11.832 141.052 11.95 140.796 11.95H140.568C140.312 11.95 140.122 11.832 139.998 11.596L137.346 6.652C137.358 6.784 137.368 6.914 137.376 7.042C137.384 7.17 137.388 7.288 137.388 7.396V13H135.966V4.324H137.184C137.256 4.324 137.318 4.326 137.37 4.33C137.422 4.334 137.468 4.344 137.508 4.36C137.552 4.376 137.59 4.402 137.622 4.438C137.658 4.474 137.692 4.522 137.724 4.582L140.322 9.4C140.39 9.528 140.452 9.66 140.508 9.796C140.568 9.932 140.626 10.072 140.682 10.216C140.738 10.068 140.796 9.926 140.856 9.79C140.916 9.65 140.98 9.516 141.048 9.388L143.61 4.582C143.642 4.522 143.676 4.474 143.712 4.438C143.748 4.402 143.786 4.376 143.826 4.36C143.87 4.344 143.918 4.334 143.97 4.33C144.022 4.326 144.084 4.324 144.156 4.324H145.374ZM149.11 5.608V8.014H152.146V9.256H149.11V11.71H152.962V13H147.49V4.324H152.962V5.608H149.11ZM161.886 4.324V13H161.058C160.93 13 160.822 12.98 160.734 12.94C160.65 12.896 160.568 12.824 160.488 12.724L155.958 6.94C155.982 7.204 155.994 7.448 155.994 7.672V13H154.572V4.324H155.418C155.486 4.324 155.544 4.328 155.592 4.336C155.644 4.34 155.688 4.352 155.724 4.372C155.764 4.388 155.802 4.414 155.838 4.45C155.874 4.482 155.914 4.526 155.958 4.582L160.506 10.39C160.494 10.25 160.484 10.112 160.476 9.976C160.468 9.84 160.464 9.714 160.464 9.598V4.324H161.886ZM168.618 5.902C168.57 5.986 168.518 6.048 168.462 6.088C168.41 6.124 168.344 6.142 168.264 6.142C168.18 6.142 168.088 6.112 167.988 6.052C167.892 5.988 167.776 5.918 167.64 5.842C167.504 5.766 167.344 5.698 167.16 5.638C166.98 5.574 166.766 5.542 166.518 5.542C166.294 5.542 166.098 5.57 165.93 5.626C165.762 5.678 165.62 5.752 165.504 5.848C165.392 5.944 165.308 6.06 165.252 6.196C165.196 6.328 165.168 6.474 165.168 6.634C165.168 6.838 165.224 7.008 165.336 7.144C165.452 7.28 165.604 7.396 165.792 7.492C165.98 7.588 166.194 7.674 166.434 7.75C166.674 7.826 166.92 7.908 167.172 7.996C167.424 8.08 167.67 8.18 167.91 8.296C168.15 8.408 168.364 8.552 168.552 8.728C168.74 8.9 168.89 9.112 169.002 9.364C169.118 9.616 169.176 9.922 169.176 10.282C169.176 10.674 169.108 11.042 168.972 11.386C168.84 11.726 168.644 12.024 168.384 12.28C168.128 12.532 167.814 12.732 167.442 12.88C167.07 13.024 166.644 13.096 166.164 13.096C165.888 13.096 165.616 13.068 165.348 13.012C165.08 12.96 164.822 12.884 164.574 12.784C164.33 12.684 164.1 12.564 163.884 12.424C163.668 12.284 163.476 12.128 163.308 11.956L163.782 11.182C163.822 11.126 163.874 11.08 163.938 11.044C164.002 11.004 164.07 10.984 164.142 10.984C164.242 10.984 164.35 11.026 164.466 11.11C164.582 11.19 164.72 11.28 164.88 11.38C165.04 11.48 165.226 11.572 165.438 11.656C165.654 11.736 165.912 11.776 166.212 11.776C166.672 11.776 167.028 11.668 167.28 11.452C167.532 11.232 167.658 10.918 167.658 10.51C167.658 10.282 167.6 10.096 167.484 9.952C167.372 9.808 167.222 9.688 167.034 9.592C166.846 9.492 166.632 9.408 166.392 9.34C166.152 9.272 165.908 9.198 165.66 9.118C165.412 9.038 165.168 8.942 164.928 8.83C164.688 8.718 164.474 8.572 164.286 8.392C164.098 8.212 163.946 7.988 163.83 7.72C163.718 7.448 163.662 7.114 163.662 6.718C163.662 6.402 163.724 6.094 163.848 5.794C163.976 5.494 164.16 5.228 164.4 4.996C164.64 4.764 164.936 4.578 165.288 4.438C165.64 4.298 166.044 4.228 166.5 4.228C167.012 4.228 167.484 4.308 167.916 4.468C168.348 4.628 168.716 4.852 169.02 5.14L168.618 5.902ZM175.172 9.724L174.116 6.838C174.064 6.71 174.01 6.558 173.954 6.382C173.898 6.206 173.842 6.016 173.786 5.812C173.734 6.016 173.68 6.208 173.624 6.388C173.568 6.564 173.514 6.718 173.462 6.85L172.412 9.724H175.172ZM178.022 13H176.774C176.634 13 176.52 12.966 176.432 12.898C176.344 12.826 176.278 12.738 176.234 12.634L175.586 10.864H171.992L171.344 12.634C171.312 12.726 171.25 12.81 171.158 12.886C171.066 12.962 170.952 13 170.816 13H169.556L172.97 4.324H174.614L178.022 13ZM184.182 11.668V13H179.1V4.324H180.714V11.668H184.182Z" fill="#F0EEEE"/>
<path d="M140.55 37.724L139.494 34.838C139.442 34.71 139.388 34.558 139.332 34.382C139.276 34.206 139.22 34.016 139.164 33.812C139.112 34.016 139.058 34.208 139.002 34.388C138.946 34.564 138.892 34.718 138.84 34.85L137.79 37.724H140.55ZM143.4 41H142.152C142.012 41 141.898 40.966 141.81 40.898C141.722 40.826 141.656 40.738 141.612 40.634L140.964 38.864H137.37L136.722 40.634C136.69 40.726 136.628 40.81 136.536 40.886C136.444 40.962 136.33 41 136.194 41H134.934L138.348 32.324H139.992L143.4 41ZM151.792 32.324V41H150.964C150.836 41 150.728 40.98 150.64 40.94C150.556 40.896 150.474 40.824 150.394 40.724L145.864 34.94C145.888 35.204 145.9 35.448 145.9 35.672V41H144.478V32.324H145.324C145.392 32.324 145.45 32.328 145.498 32.336C145.55 32.34 145.594 32.352 145.63 32.372C145.67 32.388 145.708 32.414 145.744 32.45C145.78 32.482 145.82 32.526 145.864 32.582L150.412 38.39C150.4 38.25 150.39 38.112 150.382 37.976C150.374 37.84 150.37 37.714 150.37 37.598V32.324H151.792ZM157.396 39.698C157.708 39.698 157.986 39.646 158.23 39.542C158.478 39.438 158.686 39.292 158.854 39.104C159.022 38.916 159.15 38.688 159.238 38.42C159.33 38.152 159.376 37.852 159.376 37.52V32.324H160.99V37.52C160.99 38.036 160.906 38.514 160.738 38.954C160.574 39.39 160.336 39.768 160.024 40.088C159.716 40.404 159.34 40.652 158.896 40.832C158.452 41.008 157.952 41.096 157.396 41.096C156.836 41.096 156.334 41.008 155.89 40.832C155.446 40.652 155.068 40.404 154.756 40.088C154.448 39.768 154.21 39.39 154.042 38.954C153.878 38.514 153.796 38.036 153.796 37.52V32.324H155.41V37.514C155.41 37.846 155.454 38.146 155.542 38.414C155.634 38.682 155.764 38.912 155.932 39.104C156.104 39.292 156.312 39.438 156.556 39.542C156.804 39.646 157.084 39.698 157.396 39.698ZM167.363 37.724L166.307 34.838C166.255 34.71 166.201 34.558 166.145 34.382C166.089 34.206 166.033 34.016 165.977 33.812C165.925 34.016 165.871 34.208 165.815 34.388C165.759 34.564 165.705 34.718 165.653 34.85L164.603 37.724H167.363ZM170.213 41H168.965C168.825 41 168.711 40.966 168.623 40.898C168.535 40.826 168.469 40.738 168.425 40.634L167.777 38.864H164.183L163.535 40.634C163.503 40.726 163.441 40.81 163.349 40.886C163.257 40.962 163.143 41 163.007 41H161.747L165.161 32.324H166.805L170.213 41ZM176.373 39.668V41H171.291V32.324H172.905V39.668H176.373Z" fill="#F0EEEE"/>
</svg>
