<svg width="18" height="20" viewBox="0 0 18 20" fill="none" xmlns="http://www.w3.org/2000/svg">
<path d="M9.00511 10.0098C11.3957 10.0098 13.3444 7.8807 13.3444 5.28913C13.3444 2.7177 11.4158 0.6987 9.00511 0.6987C6.6244 0.6987 4.66583 2.75799 4.66583 5.30927C4.67569 7.89056 6.6244 10.0098 9.00511 10.0098ZM9.00511 8.49313C7.53854 8.49313 6.28283 7.08741 6.28283 5.30884C6.28283 3.56156 7.5184 2.21541 9.00511 2.21541C10.5115 2.21541 11.727 3.54141 11.727 5.28913C11.727 7.06684 10.4914 8.49313 9.00511 8.49313ZM2.69697 19.3017H15.3133C16.9804 19.3017 17.7741 18.799 17.7741 17.6946C17.7741 15.0623 14.4591 11.2557 9.00511 11.2557C3.55069 11.2557 0.22583 15.0627 0.22583 17.6941C0.22583 18.799 1.01954 19.3017 2.69697 19.3017ZM2.21483 17.7841C1.9534 17.7841 1.84326 17.7138 1.84326 17.503C1.84326 15.8556 4.39454 12.7716 9.00469 12.7716C13.6157 12.7716 16.1567 15.8556 16.1567 17.503C16.1567 17.7138 16.0564 17.7841 15.7954 17.7841H2.21483Z" fill="#FF5733"/>
</svg>
